<svg width="104" height="80" viewBox="0 0 104 80" fill="none" xmlns="http://www.w3.org/2000/svg">
<path d="M103.973 34.8656C99.903 47.6723 95.8602 60.479 91.7902 73.2585C90.3793 77.6812 87.449 79.8518 82.8364 79.8518C58.2812 79.8518 33.6989 79.8518 9.14375 79.8518C3.66293 79.8518 0 76.1617 0 70.6538C0 49.3817 0 28.1367 0 6.86459C0 3.36446 1.87216 0.868243 5.0467 0.16279C5.67075 0.0271262 6.32194 0 6.97313 0C14.6246 0 22.276 0 29.9275 0C33.3191 0 35.4897 1.5737 36.6564 4.8025C37.1719 6.24054 37.6875 7.67858 38.203 9.08949C38.7185 10.5275 39.1526 10.826 40.6721 10.826C50.2228 10.826 59.7464 10.826 69.2972 10.826C72.3089 10.826 75.3206 10.826 78.3324 10.826C82.4566 10.8531 85.1156 13.485 85.1427 17.6363C85.1427 19.9969 85.1427 22.3845 85.1427 24.8536C85.604 24.8808 85.9838 24.9079 86.3637 24.9079C89.6196 24.935 92.8756 24.7994 96.1044 25.0164C100.093 25.2606 102.942 27.9196 103.783 31.8268C103.837 32.071 103.919 32.3423 104 32.5865C103.973 33.4005 103.973 34.1331 103.973 34.8656ZM57.9014 29.5747C45.6916 29.5747 33.4819 29.5747 21.245 29.5747C18.4232 29.5747 17.0665 30.6058 16.2254 33.3462C13.7292 41.2418 11.2058 49.1375 8.70962 57.0603C7.32585 61.3744 5.88781 65.6885 4.63971 70.0297C4.36838 70.9522 4.44978 72.1732 4.82964 73.0686C5.61649 74.9679 7.27159 75.6191 9.27942 75.6191C33.7532 75.6191 58.1998 75.6191 82.6736 75.6191C85.3869 75.6191 86.9335 74.4795 87.7746 71.8748C91.6003 59.8821 95.3989 47.8894 99.2789 35.8967C100.5 32.0981 98.0037 29.5205 94.6935 29.5476C82.4023 29.629 70.1654 29.5747 57.9014 29.5747ZM4.31411 55.5137C4.39551 55.5408 4.44978 55.5408 4.53118 55.568C4.63971 55.2424 4.77537 54.8896 4.8839 54.564C7.38012 46.8041 9.82207 39.017 12.4268 31.2841C12.8609 29.9546 13.7292 28.6522 14.6788 27.6212C16.4425 25.7219 18.803 25.1792 21.3264 25.2064C40.7535 25.2335 60.1805 25.2064 79.6076 25.2064C80.0689 25.2064 80.503 25.2064 81.0185 25.2064C81.0185 22.9001 81.0185 20.7566 81.0185 18.6131C81.0185 16.1169 80.3131 15.4386 77.8168 15.4386C65.6342 15.4386 53.4516 15.4386 41.269 15.4386C37.6332 15.4386 35.354 13.8106 34.1331 10.419C33.6447 9.00809 33.1291 7.62431 32.6136 6.21341C32.1524 4.9653 31.664 4.58544 30.3616 4.58544C22.466 4.58544 14.5974 4.58544 6.7018 4.58544C5.15523 4.58544 4.39551 5.34516 4.31411 6.89173C4.28698 7.21732 4.31411 7.57004 4.31411 7.89564C4.31411 22.1132 4.31411 36.3037 4.31411 50.5213C4.31411 52.1764 4.31411 53.8315 4.31411 55.5137Z" fill="#96A1DB"/>
</svg>
